<?xml version="1.0" encoding="UTF-8"?>
<svg width="51px" height="51px" viewBox="0 0 51 51" xmlns="http://www.w3.org/2000/svg">
    <path d="M0.210055805,46.2775133 C2.11885283,44.4828599 7.8452439,46.2775133 11.6628379,41.5811069 C15.480432,36.8847006 17.389229,30.3097316 15.480432,24.674044 C13.571635,19.0383563 11.6628379,12.4633874 17.389229,6.82769976 C23.1156201,1.19201211 27.8876126,-1.62583172 32.6596052,2.13129338 C37.4315978,5.88841848 36.4771993,12.4633874 33.6140037,16.2205125 C30.7508082,19.9776376 25.0244171,22.7954814 22.1612216,26.5526065 C19.298026,30.3097316 18.3436275,35.006138 21.2068231,39.7025444 C24.0700186,44.3989508 31.7052067,43.3757603 34.5684022,45.338232 C37.4315978,47.3007037 30.7508082,47.2167946 20.2524246,47.2167946 C9.75404092,47.2167946 -1.69874122,48.0722711 0.210055805,46.2775133 Z" fill="#B1E11C"/>
</svg>
