<svg width="40" height="40" viewBox="0 0 48 48" fill="none" xmlns="http://www.w3.org/2000/svg">
    <path d="M46.7806 10.4922C46.0881 5.40012 41.6015 1.38719 36.2829 0.609589C35.3856 0.478192 31.9859 0 24.1104 0H24.0516C16.174 0 14.4839 0.478192 13.5867 0.609589C8.4162 1.36565 3.69444 4.97148 2.54884 10.1239C1.99783 12.6613 1.93902 15.4745 2.04138 18.055C2.18731 21.7556 2.21562 25.4497 2.55538 29.1353C2.79026 31.5834 3.20001 34.012 3.78156 36.4029C4.87053 40.8186 9.27868 44.4934 13.5975 45.9926C18.2215 47.5561 23.1942 47.8156 27.9589 46.7422C28.483 46.6216 29.0014 46.4815 29.5139 46.3222C30.6704 45.9582 32.0273 45.551 33.0248 44.8359C33.0384 44.8258 33.0497 44.8129 33.0576 44.798C33.0655 44.7831 33.0699 44.7665 33.0705 44.7497V41.1784C33.0702 41.1627 33.0664 41.1472 33.0594 41.1331C33.0523 41.119 33.0421 41.1066 33.0296 41.0969C33.0171 41.0872 33.0025 41.0804 32.987 41.0769C32.9714 41.0735 32.9553 41.0736 32.9398 41.0771C29.8871 41.7983 26.7589 42.1598 23.6204 42.1541C18.2191 42.1541 16.7664 39.6189 16.3504 38.5634C16.0161 37.6512 15.8037 36.6997 15.7188 35.733C15.718 35.7168 15.721 35.7006 15.7276 35.6857C15.7343 35.6709 15.7444 35.6577 15.7571 35.6475C15.7699 35.6372 15.7849 35.63 15.8009 35.6266C15.817 35.623 15.8336 35.6234 15.8495 35.6275C18.8513 36.3438 21.9285 36.7053 25.0165 36.7045C25.7591 36.7045 26.4996 36.7045 27.2423 36.6851C30.3481 36.599 33.6215 36.4417 36.6771 35.8515C36.7534 35.8364 36.8296 35.8235 36.895 35.8041C41.7147 34.8886 46.3014 32.0152 46.7675 24.7389C46.785 24.4524 46.8285 21.7383 46.8285 21.4411C46.8307 20.4309 47.1574 14.2747 46.7806 10.4922ZM39.3625 28.6485H34.2945V16.3705C34.2945 13.7857 33.2055 12.4675 30.9905 12.4675C28.5556 12.4675 27.336 14.027 27.336 17.1072V23.8277H22.2984V17.1072C22.2984 14.027 21.0766 12.4675 18.6417 12.4675C16.4397 12.4675 15.3399 13.7857 15.3377 16.3705V28.6485H10.274V15.9979C10.274 13.4131 10.9412 11.3596 12.2755 9.83738C13.652 8.31881 15.4575 7.53909 17.6986 7.53909C20.2925 7.53909 22.2527 8.52558 23.5594 10.4966L24.8205 12.5903L26.0837 10.4966C27.3904 8.52558 29.3506 7.53909 31.9402 7.53909C34.1791 7.53909 35.9845 8.31881 37.3654 9.83738C38.6998 11.3581 39.3669 13.4116 39.3669 15.9979L39.3625 28.6485Z"
          fill="currentColor"/>
</svg>