<svg class="me-2" fill="none" height="41" viewBox="0 0 41 41" width="41"
     xmlns="http://www.w3.org/2000/svg">
    <circle cx="20.5" cy="20.5" fill="currentColor" r="20.5"/>
    <path d="m11.25 24.7009c-.7174.4142-.9633 1.3316-.549 2.0491.4142.7174 1.3316.9632 2.049.549zm19.5194-8.3127c.2144-.8002-.2605-1.6227-1.0607-1.8371l-13.04-3.4941c-.8002-.2144-1.6227.2605-1.8371 1.0607s.2605 1.6227 1.0607 1.8371l11.5911 3.1058-3.1058 11.5911c-.2145.8002.2604 1.6227 1.0606 1.8372.8002.2144 1.6227-.2605 1.8371-1.0607zm-18.7694 9.6118.75 1.299 17.3205-10-.75-1.299-.75-1.2991-17.3205 10z"
          fill="var(--color-text-dark)"/>
</svg>